<?xml version="1.0" encoding="UTF-8"?>
<svg xmlns="http://www.w3.org/2000/svg" id="Layer_2" viewBox="0 0 397.72 397.72">
  <defs>
    <style>.cls-1,.cls-2{fill:#011936;}.cls-3{fill:#fff;}.cls-4{fill:#3f5df5;}.cls-5{letter-spacing:-.04em;}.cls-6{letter-spacing:.03em;}.cls-7{letter-spacing:.03em;}.cls-8{letter-spacing:.01em;}.cls-9{letter-spacing:.03em;}.cls-10{letter-spacing:.02em;}.cls-11{letter-spacing:.02em;}.cls-12{letter-spacing:0em;}.cls-2{font-family:SofiaPro-Bold, 'Sofia Pro';font-size:28px;}.cls-13{letter-spacing:.02em;}</style>
  </defs>
  <g id="Layer_1-2">
    <g>
      <path class="cls-3" d="M371.45,394.72c-.84,0-1.69-.05-2.53-.14-56.26-6.01-113.48-9.05-170.06-9.05s-113.8,3.04-170.06,9.05c-.84,.09-1.69,.14-2.53,.14-6.57,0-12.87-2.82-17.29-7.74-4.48-4.98-6.55-11.39-5.84-18.06C15.18,256.08,15.18,141.64,3.14,28.8c-.71-6.67,1.36-13.08,5.84-18.06C13.4,5.82,19.7,3,26.27,3c.84,0,1.69,.05,2.53,.14,56.26,6.01,113.48,9.05,170.06,9.05s113.8-3.04,170.06-9.05c.84-.09,1.69-.14,2.53-.14,6.57,0,12.87,2.82,17.29,7.74,4.47,4.98,6.55,11.39,5.83,18.06-12.04,112.84-12.04,227.28,0,340.12,.71,6.67-1.36,13.08-5.83,18.06-4.42,4.92-10.73,7.74-17.29,7.74Z"></path>
      <path class="cls-4" d="M371.46,6c5.72,0,11.21,2.46,15.06,6.75,3.9,4.34,5.7,9.92,5.08,15.73-12.07,113.06-12.07,227.7,0,340.76,.62,5.81-1.19,11.39-5.08,15.73-3.86,4.29-9.35,6.75-15.06,6.75-.73,0-1.48-.04-2.21-.12-56.37-6.02-113.69-9.07-170.38-9.07s-114.01,3.05-170.38,9.07c-.74,.08-1.48,.12-2.21,.12-5.72,0-11.21-2.46-15.06-6.75-3.9-4.34-5.7-9.92-5.08-15.73,12.07-113.05,12.07-227.7,0-340.76-.62-5.81,1.19-11.39,5.08-15.73,3.86-4.29,9.35-6.75,15.06-6.75,.73,0,1.48,.04,2.21,.12,56.37,6.02,113.69,9.07,170.38,9.07s114.01-3.05,170.38-9.07c.74-.08,1.48-.12,2.22-.12h0M371.45,0c-.94,0-1.89,.05-2.85,.15h0c-56.42,6.02-113.08,9.03-169.74,9.03S85.54,6.17,29.12,.15h0C28.16,.05,27.21,0,26.27,0,10.87,0-1.53,13.4,.15,29.12H.15C12.2,141.96,12.2,255.76,.15,368.6H.15c-1.68,15.72,10.72,29.12,26.11,29.12,.94,0,1.89-.05,2.85-.15h0c56.42-6.02,113.08-9.03,169.74-9.03s113.32,3.01,169.74,9.03h0c.96,.1,1.91,.15,2.85,.15,15.39,0,27.79-13.4,26.11-29.12h0c-12.04-112.84-12.04-226.64,0-339.48h0C399.24,13.4,386.85,0,371.45,0h0Z"></path>
    </g>
    <g>
      <rect class="cls-4" x="55.23" y="206.28" width="65.03" height="65.03" rx="7.49" ry="7.49"></rect>
      <rect class="cls-4" x="129.31" y="206.28" width="65.03" height="65.03" rx="7.49" ry="7.49"></rect>
      <rect class="cls-4" x="203.38" y="206.28" width="65.03" height="65.03" rx="7.49" ry="7.49"></rect>
      <rect class="cls-4" x="277.45" y="206.28" width="65.03" height="65.03" rx="7.49" ry="7.49"></rect>
      <path class="cls-3" d="M73.75,237.46c-.99,.99-.6,3.01,1.13,3.2,2.89,.33,5.49,1.63,7.43,3.58,1.95,1.95,3.25,4.54,3.58,7.44,.06,.48,.25,.86,.52,1.13,.99,.99,3,.61,3.2-1.13,.32-2.9,1.63-5.49,3.58-7.43,1.95-1.95,4.54-3.26,7.44-3.58,.48-.06,.85-.25,1.12-.52,.99-.99,.61-3.01-1.13-3.2-2.89-.33-5.48-1.64-7.43-3.59-1.94-1.94-3.25-4.53-3.58-7.43-.06-.48-.25-.86-.52-1.13-.98-.98-3.01-.6-3.2,1.13-.66,5.79-5.22,10.36-11.01,11.01-.48,.06-.86,.25-1.13,.52Z"></path>
      <path class="cls-3" d="M147.82,237.46c-.99,.99-.6,3.01,1.13,3.2,2.89,.33,5.49,1.63,7.43,3.58s3.25,4.54,3.58,7.44c.06,.48,.25,.86,.52,1.13,.99,.99,3,.61,3.2-1.13,.32-2.9,1.63-5.49,3.58-7.43,1.95-1.95,4.54-3.26,7.44-3.58,.48-.06,.85-.25,1.12-.52,.99-.99,.61-3.01-1.13-3.2-2.89-.33-5.48-1.64-7.43-3.59-1.94-1.94-3.25-4.53-3.58-7.43-.06-.48-.25-.86-.52-1.13-.98-.98-3.01-.6-3.2,1.13-.66,5.79-5.22,10.36-11.01,11.01-.48,.06-.86,.25-1.13,.52Z"></path>
      <path class="cls-3" d="M221.9,237.46c-.99,.99-.6,3.01,1.13,3.2,2.89,.33,5.49,1.63,7.43,3.58s3.25,4.54,3.58,7.44c.06,.48,.25,.86,.52,1.13,.99,.99,3,.61,3.2-1.13,.32-2.9,1.63-5.49,3.58-7.43,1.95-1.95,4.54-3.26,7.44-3.58,.48-.06,.85-.25,1.12-.52,.99-.99,.61-3.01-1.13-3.2-2.89-.33-5.48-1.64-7.43-3.59-1.94-1.94-3.25-4.53-3.58-7.43-.06-.48-.25-.86-.52-1.13-.98-.98-3.01-.6-3.2,1.13-.66,5.79-5.22,10.36-11.01,11.01-.48,.06-.86,.25-1.13,.52Z"></path>
      <path class="cls-3" d="M295.97,237.46c-.99,.99-.6,3.01,1.13,3.2,2.89,.33,5.49,1.63,7.43,3.58s3.25,4.54,3.58,7.44c.06,.48,.25,.86,.52,1.13,.99,.99,3,.61,3.2-1.13,.32-2.9,1.63-5.49,3.58-7.43,1.95-1.95,4.54-3.26,7.44-3.58,.48-.06,.85-.25,1.12-.52,.99-.99,.61-3.01-1.13-3.2-2.89-.33-5.48-1.64-7.43-3.59-1.94-1.94-3.25-4.53-3.58-7.43-.06-.48-.25-.86-.52-1.13-.98-.98-3.01-.6-3.2,1.13-.66,5.79-5.22,10.36-11.01,11.01-.48,.06-.86,.25-1.13,.52Z"></path>
    </g>
    <g>
      <g>
        <path class="cls-1" d="M73.51,97.09c0-11.03,8.82-20.19,19.8-20.19,6.39,0,11.99,3,15.5,7.58l-5.2,3.96c-2.38-3.11-5.88-5.09-10.12-5.09-7.41,0-13.01,6.28-13.01,13.74s5.49,13.69,13.01,13.69c4.24,0,7.75-1.98,10.12-5.09l5.2,3.96c-3.51,4.58-9.11,7.58-15.5,7.58-10.97,0-19.8-9.11-19.8-20.14Z"></path>
        <path class="cls-1" d="M138.48,101.73v14.82h-6.56v-14.37c0-4.24-2.54-6.5-5.49-6.5s-6.73,1.75-6.73,6.9v13.97h-6.56v-40.78h6.56v18.38c1.3-3.22,5.54-4.69,8.2-4.69,6.79,0,10.58,4.58,10.58,12.27Z"></path>
        <path class="cls-1" d="M165.42,90.13h6.56v26.41h-6.56v-4.13c-1.75,2.88-5.26,4.81-9.05,4.81-7.07,0-12.73-5.71-12.73-13.91s5.43-13.86,12.9-13.86c3.62,0,7.13,1.58,8.88,4.35v-3.68Zm-.11,13.18c0-4.52-3.73-7.75-7.63-7.75-4.24,0-7.47,3.51-7.47,7.75s3.22,7.8,7.52,7.8c4.07,0,7.58-3.39,7.58-7.8Z"></path>
        <path class="cls-1" d="M196.53,90.36l-1.3,6.22c-1.53-.79-2.88-.96-3.85-.96-4.3,0-6.67,4.3-6.67,11.71v9.22h-6.62v-26.41h6.56v5.66c1.41-4.41,4.3-6.33,7.58-6.33,1.58,0,3.28,.34,4.3,.9Z"></path>
        <path class="cls-1" d="M199.21,80.8c0-2.32,1.98-4.02,4.3-4.02s4.24,1.7,4.24,4.02-1.87,4.02-4.24,4.02-4.3-1.75-4.3-4.02Zm1.02,35.74v-26.41h6.56v26.41h-6.56Z"></path>
        <path class="cls-1" d="M227.87,90.13v5.2h-5.6v21.21h-6.56v-21.21h-4.75v-5.2h4.75v-9.73h6.56v9.73h5.6Z"></path>
        <path class="cls-1" d="M251.12,90.13h7.07l-16.4,39.31h-6.9l5.94-14.76-10.52-24.55h7.18l6.84,16.74,6.79-16.74Z"></path>
        <path class="cls-1" d="M98.4,126.98h6.9v38.97h-6.28l-15.55-26.24v26.24h-6.9v-38.97h6.5l15.33,26.02v-26.02Z"></path>
        <path class="cls-1" d="M133.24,139.54h6.56v26.41h-6.56v-4.13c-1.75,2.88-5.26,4.81-9.05,4.81-7.07,0-12.73-5.71-12.73-13.91s5.43-13.86,12.9-13.86c3.62,0,7.13,1.58,8.88,4.35v-3.68Zm-.11,13.18c0-4.52-3.73-7.75-7.64-7.75-4.24,0-7.47,3.51-7.47,7.75s3.22,7.8,7.52,7.8c4.07,0,7.58-3.39,7.58-7.8Z"></path>
        <path class="cls-1" d="M164.57,139.54h7.13l-11.14,26.41h-5.99l-11.03-26.41h7.07l7.01,18.1,6.96-18.1Z"></path>
        <path class="cls-1" d="M174.38,130.2c0-2.32,1.98-4.02,4.3-4.02s4.24,1.7,4.24,4.02-1.87,4.02-4.24,4.02-4.3-1.75-4.3-4.02Zm1.02,35.74v-26.41h6.56v26.41h-6.56Z"></path>
        <path class="cls-1" d="M209.05,139.54h6.56v22.96c0,11.88-5.77,17.02-14.82,17.02-5.43,0-10.18-2.94-12.5-7.69l5.43-2.49c1.3,2.54,4.19,4.24,7.07,4.24,5.09,0,8.26-2.88,8.26-10.46v-.62c-1.87,2.71-5.54,4.13-8.77,4.13-6.96,0-13.01-5.49-13.01-13.91s6-13.86,12.95-13.86c3.39,0,6.96,1.41,8.82,4.13v-3.45Zm-.11,13.12c0-4.64-3.85-7.69-7.64-7.69-4.07,0-7.41,3.28-7.41,7.69s3.34,7.86,7.41,7.86,7.64-3.22,7.64-7.86Z"></path>
        <path class="cls-1" d="M242.48,139.54h6.56v26.41h-6.56v-4.13c-1.75,2.88-5.26,4.81-9.05,4.81-7.07,0-12.72-5.71-12.72-13.91s5.43-13.86,12.89-13.86c3.62,0,7.13,1.58,8.88,4.35v-3.68Zm-.11,13.18c0-4.52-3.73-7.75-7.64-7.75-4.24,0-7.47,3.51-7.47,7.75s3.22,7.8,7.52,7.8c4.07,0,7.58-3.39,7.58-7.8Z"></path>
        <path class="cls-1" d="M270.31,139.54v5.2h-5.6v21.21h-6.56v-21.21h-4.75v-5.2h4.75v-9.73h6.56v9.73h5.6Z"></path>
        <path class="cls-1" d="M272.62,152.71c0-8.37,6.5-13.86,14.03-13.86s14.08,5.49,14.08,13.86-6.56,13.91-14.08,13.91-14.03-5.54-14.03-13.91Zm21.49,0c0-4.52-3.39-7.75-7.47-7.75s-7.41,3.22-7.41,7.75,3.34,7.8,7.41,7.8,7.47-3.17,7.47-7.8Z"></path>
        <path class="cls-1" d="M324.2,139.76l-1.3,6.22c-1.53-.79-2.88-.96-3.85-.96-4.3,0-6.67,4.3-6.67,11.71v9.22h-6.62v-26.41h6.56v5.66c1.41-4.41,4.3-6.33,7.58-6.33,1.58,0,3.28,.34,4.3,.9Z"></path>
      </g>
      <g>
        <circle class="cls-1" cx="319.94" cy="92.99" r="4.12"></circle>
        <circle class="cls-1" cx="299.75" cy="113.19" r="4.12"></circle>
        <circle class="cls-1" cx="279.56" cy="92.99" r="4.12"></circle>
        <path class="cls-1" d="M285.6,71.45c-1,1-.61,3.04,1.14,3.23,2.92,.33,5.54,1.65,7.51,3.61,1.97,1.97,3.29,4.59,3.62,7.51,.06,.48,.25,.86,.53,1.14,1,1,3.03,.62,3.23-1.14,.33-2.93,1.65-5.54,3.61-7.51,1.97-1.97,4.58-3.29,7.51-3.62,.48-.06,.86-.25,1.13-.52,1-1,.62-3.04-1.14-3.23-2.92-.33-5.54-1.65-7.51-3.62-1.96-1.96-3.29-4.58-3.62-7.5-.06-.48-.25-.87-.52-1.14-.99-.99-3.04-.61-3.23,1.14-.66,5.85-5.28,10.46-11.13,11.13-.48,.06-.87,.25-1.14,.52Z"></path>
      </g>
    </g>
    <g>
      <text class="cls-2" transform="translate(119.36 330.47)">
        <tspan class="cls-12" x="0" y="0">F</tspan>
        <tspan class="cls-10" x="15.26" y="0">O</tspan>
        <tspan class="cls-7" x="37.89" y="0">U</tspan>
        <tspan class="cls-8" x="57.68" y="0">R</tspan>
        <tspan class="cls-13" x="75.88" y="0">-</tspan>
        <tspan class="cls-11" x="89.87" y="0">S</tspan>
        <tspan class="cls-5" x="106.73" y="0">T</tspan>
        <tspan class="cls-6" x="121.38" y="0">A</tspan>
        <tspan class="cls-9" x="140.42" y="0">R</tspan>
      </text>
      <g>
        <path class="cls-1" d="M79.84,319.7c-.56,.56-.34,1.7,.64,1.81,1.64,.19,3.1,.92,4.2,2.02,1.1,1.1,1.84,2.57,2.02,4.2,.03,.27,.14,.48,.3,.64,.56,.56,1.7,.34,1.81-.64,.18-1.64,.92-3.1,2.02-4.2,1.1-1.1,2.56-1.84,4.2-2.02,.27-.03,.48-.14,.63-.29,.56-.56,.35-1.7-.64-1.81-1.64-.19-3.1-.93-4.2-2.03-1.1-1.1-1.84-2.56-2.02-4.2-.03-.27-.14-.49-.29-.64-.55-.55-1.7-.34-1.81,.64-.37,3.27-2.95,5.85-6.22,6.22-.27,.03-.49,.14-.64,.29Z"></path>
        <path class="cls-1" d="M302.06,319.7c-.56,.56-.34,1.7,.64,1.81,1.64,.19,3.1,.92,4.2,2.02,1.1,1.1,1.84,2.57,2.02,4.2,.03,.27,.14,.48,.3,.64,.56,.56,1.7,.34,1.81-.64,.18-1.64,.92-3.1,2.02-4.2,1.1-1.1,2.56-1.84,4.2-2.02,.27-.03,.48-.14,.63-.29,.56-.56,.35-1.7-.64-1.81-1.64-.19-3.1-.93-4.2-2.03-1.1-1.1-1.84-2.56-2.02-4.2-.03-.27-.14-.49-.29-.64-.55-.55-1.7-.34-1.81,.64-.37,3.27-2.95,5.85-6.22,6.22-.27,.03-.49,.14-.64,.29Z"></path>
      </g>
    </g>
  </g>
</svg>
