<svg viewBox="0 0 180 53" fill="none" xmlns="http://www.w3.org/2000/svg">
<path d="M6.9638 42.8593C7.768 43.8165 8.6203 44.7303 9.51728 45.5971C10.5944 46.5751 11.7392 47.4723 12.9427 48.2819C13.1088 48.388 13.2852 48.4516 13.1399 48.7063C12.9946 48.961 12.787 48.8018 12.6001 48.7063C9.40235 46.9555 6.64001 44.4781 4.5256 41.4647C2.41119 38.4513 1.00105 34.9822 0.403661 31.3244C-0.190852 27.9893 -0.12811 24.5665 0.588212 21.2566C1.30453 17.9466 2.66002 14.8162 4.5752 12.0488C6.49037 9.2814 8.9267 6.93274 11.7413 5.14051C14.556 3.34827 17.6923 2.14854 20.9664 1.61163C24.7388 0.918922 28.6177 1.14396 32.2892 2.26852C35.9607 3.39309 39.3217 5.38559 42.1 8.08476C46.1822 11.9368 48.8651 17.0909 49.7098 22.7042C50.5546 28.3175 49.5111 34.0577 46.7502 38.986C46.6464 39.177 46.5945 39.5166 46.2209 39.3256C46.1171 39.2725 46.0444 39.3256 46.0133 39.4635C45.515 41.1508 44.1968 41.7238 42.6813 42.021C41.4854 42.205 40.2712 42.2299 39.0691 42.0952C38.7369 42.0952 38.685 42.0952 38.8407 42.4348C39.1213 42.9736 39.3308 43.5481 39.4635 44.1433C39.5863 44.5504 39.6242 44.9794 39.5747 45.4024C39.5252 45.8254 39.3894 46.2332 39.1762 46.5992C38.9629 46.9652 38.6769 47.2815 38.3366 47.5275C37.9963 47.7734 37.6093 47.9437 37.2007 48.0272C35.5324 48.4114 33.8046 48.4403 32.1249 48.1121L31.7823 48.0484C31.5228 47.9953 31.3567 48.0484 31.4605 48.3774C32.0003 51.8049 28.1805 51.6988 26.4055 51.4548C22.137 50.7446 18.0147 49.31 14.209 47.2101C11.9494 46.0854 9.79221 44.7572 7.76306 43.2413C7.5347 43.0715 7.14027 42.7107 7.05723 42.6471C6.97419 42.5834 6.88076 42.7532 6.9638 42.8487V42.8593ZM44.2072 13.3906C42.6207 11.1724 40.6843 9.23948 38.4774 7.67091C38.384 7.60724 38.2802 7.4905 38.1245 7.59662C39.7334 9.01858 41.4253 11.2152 43.0861 12.9025C43.2589 13.0525 43.451 13.1774 43.657 13.2739C43.8254 13.3674 44.0158 13.4115 44.2072 13.4012V13.3906ZM21.9732 7.62847C21.1594 7.97804 20.3658 8.37485 19.5962 8.81697C19.2226 9.00798 19.1499 9.13533 19.4613 9.48551C20.7355 10.8719 22.1247 12.1429 23.6133 13.2845C23.8416 13.4543 23.9558 13.4331 24.1427 13.2208C24.3295 13.0086 24.9523 12.1597 25.4921 11.6079C26.0318 11.056 26.7169 10.3557 26.8311 10.1647C26.9453 9.97365 26.8311 9.7508 26.6131 9.52795C26.3951 9.30511 25.8035 8.60473 25.3052 7.94681C25.1495 7.72396 24.6098 6.88564 24.2672 6.88564C23.4476 6.99828 22.6537 7.25687 21.9214 7.64968L21.9732 7.62847ZM2.02293 30.7089C2.21418 32.3463 2.69238 33.9352 3.43461 35.3993C4.28958 36.8747 5.33721 38.2242 6.5486 39.4105C6.22682 38.5934 5.77011 36.4604 5.45871 35.1127C5.32742 34.6331 5.08535 34.1928 4.75287 33.8287C3.82905 32.619 2.29282 31.0591 2.0437 30.7089H2.02293ZM15.9529 5.41061C14.9336 5.88827 13.9393 6.41957 12.9738 7.00237C11.924 7.65151 10.9152 8.36745 9.95323 9.14593C9.86306 9.20888 9.79067 9.29496 9.7433 9.39553C9.69593 9.49611 9.67526 9.60764 9.68336 9.71896C9.83381 10.7428 10.1532 11.7332 10.6279 12.6478C10.8459 13.1147 10.9809 13.3163 11.3234 12.9449C12.9579 11.1097 14.7582 9.43623 16.7002 7.94681C16.9182 7.79824 16.9805 7.84069 16.8663 7.38439C16.8663 7.26766 16.6068 6.66279 16.4719 6.15343C16.4176 5.9028 16.3411 5.65774 16.2435 5.42123C16.224 5.39865 16.2001 5.38056 16.1732 5.36817C16.1464 5.35578 16.1173 5.34937 16.0878 5.34937C16.0583 5.34937 16.0292 5.35578 16.0024 5.36817C15.9755 5.38056 15.9516 5.39865 15.9321 5.42123L15.9529 5.41061ZM37.3771 16.1603C37.3045 16.1603 37.0346 16.0542 36.9516 16.2982C36.609 17.232 36.2353 18.6965 35.9136 19.7364C35.7579 20.1396 35.7786 20.2988 36.2042 20.4686C38.1013 21.2461 40.0599 21.8567 42.0585 22.2938C42.4737 22.3787 42.7955 22.2938 42.8993 21.8163C42.9843 21.0677 42.9386 20.3095 42.7643 19.5772C42.6474 18.8596 42.4844 18.1506 42.2765 17.4549C42.2765 17.3912 42.1519 17.041 41.8198 16.9986C40.6572 16.85 38.1245 16.3407 37.3564 16.1284L37.3771 16.1603ZM44.7158 24.7557C44.3317 24.8725 44.3317 25.1696 44.3006 25.4667C44.0327 27.3609 43.5949 29.2258 42.9927 31.0379C42.7332 31.8019 42.5567 32.1627 42.837 32.4704C43.1173 32.7782 46.335 32.7251 47.4353 32.1415C47.8817 31.908 48.3488 31.6003 48.4733 31.0803C48.9304 28.6016 48.8987 26.0545 48.3799 23.5884C47.7467 24.1403 45.1206 24.6496 44.7365 24.7345L44.7158 24.7557ZM2.89486 20.0972C2.5627 21.1584 1.4209 24.9786 1.9918 27.0372C2.56358 28.6699 3.57902 30.1019 4.91895 31.1652C5.03081 28.9254 5.26298 26.6936 5.6144 24.4798C5.18883 23.7264 3.17512 20.6066 2.89486 20.0972V20.0972ZM8.44814 10.6422C6.14379 12.6584 4.50375 16.2664 4.49337 17.4973C4.49337 19.1315 5.53137 20.4262 6.42405 21.742C6.96649 20.3294 7.58327 18.9479 8.27168 17.6035C8.53118 17.1365 9.30968 15.7782 9.58994 15.2689C9.6373 15.1098 9.6373 14.9398 9.58994 14.7807C9.46538 14.3138 9.1955 13.6241 8.97752 12.9131C8.74065 12.1679 8.56019 11.4051 8.43776 10.6316L8.44814 10.6422ZM22.8452 4.95432C23.1293 4.91727 23.406 4.83492 23.6652 4.71025C23.8728 4.54046 23.6652 4.29638 23.6652 3.88252C23.6652 3.46867 23.6652 3.44746 23.3745 3.47929C21.5162 3.66506 19.6804 4.03829 17.8939 4.59352C17.3853 4.7527 17.2607 5.0286 17.2607 5.53796C17.2765 5.99061 17.3937 6.43352 17.6033 6.83259C17.7278 7.09788 17.8524 7.18277 18.1223 7.02359C19.5932 6.13897 21.1656 5.44393 22.8036 4.95432H22.8452ZM13.7938 31.9929C13.8341 31.9238 13.8595 31.8466 13.8681 31.7666C13.8767 31.6866 13.8685 31.6057 13.8439 31.5292C13.8193 31.4528 13.7789 31.3826 13.7255 31.3235C13.6721 31.2643 13.6069 31.2176 13.5343 31.1864C12.1746 30.242 9.64184 28.1196 8.21978 26.9417C7.71116 26.5279 7.33748 26.1353 7.18178 26.0928C6.85036 28.126 6.63892 30.1778 6.5486 32.237C6.52627 32.478 6.55658 32.7211 6.63736 32.9486C6.71814 33.1762 6.84738 33.3826 7.01571 33.5528C7.09875 33.6377 7.72154 34.232 8.48966 34.8581C9.67298 35.8131 11.23 36.9804 11.832 37.4261C12.0708 37.6171 12.1538 37.6065 12.2368 37.2669C12.3718 36.7576 12.6624 35.3674 12.9946 34.2001C13.3267 33.0329 13.6589 32.2688 13.7523 31.9929H13.7938ZM21.1532 21.2963C20.4785 22.3575 20.4785 22.3575 21.5269 23.0791C24.4047 25 27.4003 26.7297 30.4952 28.2576C30.7547 28.3849 30.9104 28.3849 31.035 28.0878C31.2322 27.5997 31.4917 27.1434 31.6785 26.6658C31.9692 25.9124 33.2355 22.7395 33.495 22.1028C33.63 21.7951 33.495 21.6996 33.277 21.5828C32.6854 21.3069 32.1145 21.0204 31.5436 20.7127C29.2223 19.4806 27.0009 18.0612 24.9004 16.468C24.7447 16.3513 24.5786 16.1709 24.4125 16.468C24.2465 16.7651 21.6307 20.5429 21.1532 21.2963ZM22.5753 15.2371C22.8244 14.9505 22.7829 14.7913 22.5026 14.5473C20.9111 13.2193 19.4914 11.6895 18.278 9.99487C18.1223 9.77203 18.0081 9.74019 17.7694 9.90998C16.6612 10.6967 15.6196 11.577 14.6554 12.5417C13.8916 13.4279 13.2234 14.3956 12.6624 15.4281C12.5586 15.6509 12.569 15.7464 12.7454 15.9799C13.6181 16.8919 14.5436 17.7494 15.5169 18.5479L18.4752 20.9249C18.6101 21.031 18.7555 21.1902 18.9112 20.9249C19.4405 20.0123 22.2016 15.7995 22.6064 15.2371H22.5753ZM14.2505 29.5098C14.3855 29.6159 14.5827 29.8706 14.7073 29.5098C15.0602 28.5653 17.0531 24.3737 17.2192 24.0447C17.759 22.9836 17.759 22.9836 16.8663 22.262C14.9312 20.7077 13.1604 18.9507 11.5829 17.0198C11.2923 16.659 11.1781 16.7545 10.9601 17.0835C10.3522 18.0301 9.79765 19.0116 9.2993 20.0229C8.75817 21.0743 8.3067 22.1713 7.9499 23.3019C7.90877 23.4213 7.89863 23.5496 7.92046 23.6742C7.94229 23.7988 7.99535 23.9155 8.07446 24.0129C8.42738 24.4268 13.0984 28.5865 14.2505 29.4992V29.5098ZM29.5402 30.8256C29.6752 30.5709 29.7686 30.2738 29.3949 30.104C27.7052 29.3402 26.0591 28.4793 24.4644 27.5254C22.8555 26.5703 21.2674 25.5622 19.7312 24.4692C19.6274 24.3949 19.4821 24.1827 19.3679 24.3949C19.1084 24.8937 16.7417 29.4885 16.2539 30.4967C16.1086 30.8044 16.1605 30.953 16.4303 31.144C19.3212 33.2214 22.3568 35.0799 25.5128 36.7045C26.3536 37.1396 26.3744 37.1502 26.8103 36.28C27.3293 35.2189 29.1977 31.4623 29.5299 30.8256H29.5402ZM31.7719 28.491C31.6059 28.7669 31.7719 28.8412 31.9588 28.9261C33.5054 29.6371 35.7994 30.5816 37.6782 31.2289C38.741 31.5977 39.822 31.9094 40.9167 32.1627C41.4772 32.2794 41.4461 32.046 41.581 31.7913C42.3627 29.6079 42.8312 27.3204 42.9719 24.9998C42.9719 24.6921 42.8474 24.6284 42.5983 24.6072C41.7474 24.4993 40.9047 24.3327 40.0759 24.1084C38.4272 23.6863 36.8134 23.1328 35.2492 22.453C35.0935 22.3893 34.9171 22.2408 34.8237 22.453C34.5953 23.0048 32.3947 27.3556 31.7719 28.4698V28.491ZM37.2526 41.1402C39.4602 41.67 41.7627 41.6226 43.9477 41.0022C44.5141 40.7906 44.9863 40.376 45.2764 39.8354C45.5666 39.2948 45.6551 38.665 45.5254 38.0628C45.2968 36.9228 44.8487 35.8406 44.2072 34.8793C43.8439 34.2638 43.6155 33.9773 42.9512 33.8924H42.1727C42.0629 33.8693 41.9487 33.8864 41.85 33.9407C41.7513 33.995 41.6745 34.0831 41.6329 34.1895C40.8302 35.6044 40.024 37.0405 39.2144 38.4979L39.0379 38.8056C38.9445 38.9648 38.8303 38.9223 38.7058 38.8056C38.5812 38.6889 38.5293 38.657 38.6123 38.5191C38.6954 38.3811 38.768 38.222 38.8407 38.0734L40.8025 34.2001C40.9478 33.8924 40.9894 33.7226 40.5326 33.6696C39.3507 33.5032 38.1817 33.2515 37.0346 32.9161C34.9787 32.3522 32.9636 31.643 31.0038 30.7938C30.8377 30.7301 30.6405 30.5816 30.4952 30.8681C30.2046 31.4517 27.8068 35.9405 27.1113 37.1184C26.9556 37.373 27.267 37.5428 27.4331 37.6277C30.6052 39.0696 33.8899 40.2374 37.2526 41.119V41.1402ZM13.5862 37.8824C13.5066 38.0726 13.4986 38.2862 13.5637 38.4821C13.6289 38.678 13.7626 38.8424 13.9391 38.9436C17.6165 41.5512 21.564 43.7363 25.71 45.4591C27.4549 46.1537 29.2445 46.7245 31.0661 47.1676C32.4851 47.488 33.9313 47.6657 35.3842 47.6982C36.2134 47.6972 37.0322 47.5088 37.782 47.1464C38.227 46.9289 38.5877 46.5648 38.8061 46.1125C39.0244 45.6603 39.0878 45.1462 38.986 44.6527C38.8179 43.839 38.5086 43.0627 38.0726 42.3605C37.9377 42.1165 37.9273 42.0846 37.4809 41.9785C37.0346 41.8724 34.8133 41.3524 33.5054 40.9704C27.5824 39.1999 21.9221 36.6153 16.6795 33.2875C16.2954 33.0435 15.7764 32.5978 15.4339 32.7463C14.9597 33.4849 14.6089 34.299 14.3959 35.1552C14.0014 36.3331 13.6796 37.5216 13.5966 37.9248L13.5862 37.8824ZM12.7351 42.7956C12.7059 43.2518 12.7129 43.7095 12.7558 44.1645C12.7644 44.2986 12.806 44.4282 12.8768 44.5414C12.9476 44.6546 13.0452 44.7476 13.1607 44.8118C16.4579 47.1204 20.076 48.909 23.8935 50.1177C25.4806 50.657 27.1556 50.8733 28.824 50.7544C30.4744 50.5634 31.2114 49.6083 30.8066 48.1545C30.7829 48.0298 30.7207 47.9161 30.6292 47.8302C30.5376 47.7442 30.4216 47.6905 30.298 47.677C26.2365 46.7409 22.2988 45.3123 18.5686 43.4217C16.7871 42.5441 15.0544 41.5663 13.3786 40.4929C13.1087 40.3231 13.0153 40.3125 12.9634 40.6839C12.8492 41.4161 12.7766 42.1483 12.7247 42.8062L12.7351 42.7956ZM35.4776 15.704C35.5606 15.4493 35.3323 15.3962 35.1558 15.3113C32.9898 14.347 30.9443 13.1215 29.0628 11.6609C28.824 11.4699 28.6787 11.4805 28.4919 11.6609C27.6822 12.5947 26.8622 13.5286 26.0318 14.4518C25.8346 14.6852 25.845 14.8232 26.1149 15.0036C28.6619 16.699 31.3262 18.2027 34.0867 19.5029C34.2943 19.6091 34.4292 19.5985 34.5019 19.365C34.8652 18.1447 35.1973 16.9243 35.4776 15.6615V15.704ZM36.0796 9.17777C35.9501 8.68431 35.6422 8.25953 35.2181 7.98926C35.0222 7.86305 34.8007 7.78408 34.5705 7.75834C34.3403 7.7326 34.1074 7.76077 33.8895 7.8407C32.6739 8.23679 31.5505 8.88323 30.5886 9.74018C30.3914 9.89936 30.4537 10.0055 30.5886 10.1222C32.1923 11.1907 33.8522 12.1684 35.5606 13.051C35.8098 13.1784 35.872 13.1041 35.9032 12.8494C36.0498 11.6317 36.0949 10.4033 36.0381 9.17777H36.0796ZM11.6971 43.7719C11.8009 43.687 11.7594 43.6021 11.7594 43.5172C11.6364 42.3052 11.6643 41.0822 11.8424 39.8774C11.8424 39.5697 11.7178 39.4529 11.5206 39.3256C10.4826 38.6464 9.51728 37.9355 8.56232 37.2033C8.11598 36.8637 7.6904 36.5241 7.25444 36.1421C7.25444 36.1421 7.10912 36.1421 7.14026 36.2376C7.64888 39.1664 7.91876 41.2463 11.6971 43.7613V43.7719ZM45.2763 22.5379C45.5669 22.5379 45.868 22.4636 46.1482 22.3893C47.2485 22.1028 47.5599 21.551 47.1862 20.4368C46.6958 19.0505 45.9206 17.7877 44.913 16.7333L44.3213 16.85C44.2217 16.8676 44.1286 16.9124 44.0519 16.9796C43.9751 17.0469 43.9176 17.1341 43.8854 17.232C43.8854 17.37 44.1345 18.2932 44.2902 19.4074C44.4148 20.2776 44.4251 21.36 44.4459 21.8269C44.4459 22.4742 44.5705 22.5697 45.2348 22.5379H45.2763ZM48.2138 32.5129C47.2094 33.3234 45.9743 33.7778 44.695 33.8075C44.2487 33.8075 44.3317 33.9773 44.5082 34.2426C45.1308 35.1375 45.5979 36.1355 45.8887 37.1926C46.0029 37.6277 46.0548 38.084 46.1586 38.6677C47.0983 36.7123 47.7957 34.6448 48.2346 32.5129H48.2138ZM41.4357 15.3432C40.5845 13.4755 39.7541 11.5972 37.8858 10.3769C37.8959 11.4766 37.802 12.5747 37.6055 13.6559C37.6055 13.8469 37.6055 13.9955 37.8027 14.091C38.9667 14.6392 40.1846 15.059 41.4357 15.3432V15.3432ZM31.0557 6.50361C29.6178 6.18208 28.1382 6.10322 26.6754 6.27016C26.447 6.27016 26.3847 6.39751 26.364 6.45057C26.3413 6.49475 26.3294 6.54391 26.3294 6.59382C26.3294 6.64374 26.3413 6.6929 26.364 6.73707C26.364 6.73707 26.8415 7.25705 27.0802 7.46928C27.3189 7.68152 28.2428 8.37128 28.2428 8.37128C28.2428 8.37128 28.4815 8.5623 28.6372 8.42434C29.26 7.87254 30.7755 6.93869 31.1803 6.62034C31.2737 6.54606 31.0246 6.50361 31.0246 6.50361H31.0557ZM31.5747 4.38128C29.4629 3.64895 27.2444 3.29009 25.0146 3.32011C24.8485 3.32011 24.5994 3.32011 24.5371 3.5854C24.487 3.8313 24.5124 4.087 24.6098 4.31761C24.7136 4.55107 24.9315 4.50863 25.0976 4.47679C26.8984 4.1078 28.7458 4.03971 30.5679 4.27517L31.6059 4.41311L31.5747 4.38128ZM43.273 14.9293C43.5221 15.895 43.5325 15.9056 43.9892 15.7252L43.273 14.9293" fill="#F9F6EC"/>
<g opacity="0.5">
<path d="M30.0906 46.6298C29.4884 45.7472 28.7922 44.9357 28.0146 44.2104C25.3659 41.6451 22.3571 39.4991 19.0878 37.8433C17.6146 37.0522 16.1004 36.3437 14.5518 35.721L15.1642 34.0974C19.721 36.4744 23.8315 38.8833 27.5267 42.5868C28.7459 43.7507 29.8135 45.0704 30.703 46.5131L30.8898 46.7996L30.0906 46.6298Z" fill="#F9F6EC"/>
<path d="M18.9628 26.0618C20.3424 26.666 21.684 27.3571 22.9799 28.131C24.9521 29.2771 28.5643 31.877 28.6889 31.9831L28.201 32.9381C25.6917 31.3329 23.0727 29.9143 20.3641 28.6935C19.513 28.2902 18.9836 28.1311 18.1221 27.7384L18.9628 26.0618Z" fill="#F9F6EC"/>
<path d="M8.73952 22.4539C11.3312 23.0254 13.8698 23.8242 16.3273 24.8415L15.5799 26.5288C13.605 25.7768 11.5834 25.1599 9.5284 24.6823C9.5284 24.6823 9.0094 24.3109 8.68762 24.0244C8.58668 23.9409 8.51143 23.8294 8.47093 23.7033C8.43042 23.5772 8.42637 23.4418 8.45926 23.3134C8.52088 23.0171 8.61489 22.7287 8.73952 22.4539" fill="#F9F6EC"/>
<path d="M14.1774 13.9324C15.2709 14.1791 16.3382 14.5345 17.3641 14.9935C18.6528 15.4098 19.9118 15.9169 21.132 16.511L20.094 18.0285C19.5127 17.8056 19.3259 17.7738 18.7342 17.5722C16.7309 16.8718 13.3263 15.9168 13.3263 15.9168C13.2721 15.9064 13.2239 15.8755 13.1911 15.8302C13.1584 15.7849 13.1436 15.7286 13.1498 15.6727C13.3976 15.0498 13.7487 14.4754 14.1878 13.9748" fill="#F9F6EC"/>
<path d="M32.2903 24.111C30.1302 22.7841 27.9022 21.5762 25.616 20.4924C24.6403 20.0149 24.0486 19.7496 23.0625 19.2827L24.1005 17.882C27.1053 19.3389 29.9839 21.0535 32.7055 23.0074L32.2903 24.111Z" fill="#F9F6EC"/>
<path d="M7.05469 31.495C9.04733 31.7176 10.9942 32.2545 12.826 33.0867L12.39 34.8483C10.9814 34.3251 9.51257 33.9898 8.02002 33.8508C8.02002 33.8508 7.10659 33.2671 6.98203 32.7366C6.95847 32.3231 6.95847 31.9085 6.98203 31.495" fill="#F9F6EC"/>
<path d="M36.9084 40.7392C36.7186 40.4275 36.5033 40.1329 36.2648 39.8584C34.6924 38.1746 32.9954 36.6172 31.189 35.1999C30.151 34.351 29.2998 33.831 29.2168 33.7779L29.7254 32.8335C32.3172 34.6902 34.6863 36.8521 36.7838 39.2748C37.1868 39.7565 37.535 40.2834 37.8218 40.8453L36.9084 40.7392Z" fill="#F9F6EC"/>
<path d="M41.4039 31.358C40.8122 30.7956 40.5216 30.5409 39.9299 29.9891C38.0886 28.2311 36.0982 26.6437 33.9822 25.2457L34.4285 24.2588C35.731 25.1751 36.9756 26.1746 38.1549 27.2513C39.3903 28.3214 40.5553 29.4735 41.6426 30.7001L41.4039 31.358Z" fill="#F9F6EC"/>
<path d="M8.95449 15.1234C7.70225 15.2623 6.48897 15.6517 5.38379 16.2695C5.72483 15.182 6.22154 14.1521 6.85774 13.2133C7.3796 13.1004 7.91263 13.0505 8.44588 13.0648C8.6923 13.7287 8.86297 14.4195 8.95449 15.1234" fill="#F9F6EC"/>
<path d="M25.9163 10.3998C25.9163 10.3998 23.0722 9.25371 21.0688 8.63824C21.3081 8.45243 21.5655 8.2924 21.837 8.16071C22.2833 7.93787 23.1345 7.61951 23.1345 7.61951C23.6653 7.72321 24.1814 7.89432 24.6707 8.12886C25.2381 8.61258 25.7345 9.17725 26.1447 9.80551C26.4042 10.1345 25.9163 10.3998 25.9163 10.3998" fill="#F9F6EC"/>
<path d="M5.07628 24.5129C4.45189 24.4768 3.83796 24.6884 3.36231 25.1035C2.88666 25.5186 2.58596 26.1052 2.52281 26.7413C2.30268 25.4828 2.32383 24.1926 2.58509 22.9423C3.00913 22.7587 3.45643 22.6372 3.91372 22.5815L5.07628 24.5129Z" fill="#F9F6EC"/>
<path d="M42.5363 21.0642C41.9135 20.4699 41.6852 20.2789 41.052 19.6847C39.9477 18.7212 38.7864 17.8281 37.5747 17.0105C37.5747 16.8089 37.5747 16.6603 37.8757 16.7665C38.4778 16.9787 39.412 17.2122 39.412 17.2122C40.4224 18.0319 41.3826 18.9144 42.2872 19.8545C42.4396 20.2395 42.5239 20.6491 42.5363 21.0642" fill="#F9F6EC"/>
<path d="M16.2724 7.32316C15.3661 7.21858 14.4545 7.16897 13.5425 7.1746C14.163 6.77235 14.8118 6.41766 15.4835 6.11343C16.0025 5.94364 16.0544 6.262 16.1375 6.58035C16.1965 6.82866 16.2415 7.0802 16.2724 7.33377" fill="#F9F6EC"/>
<path d="M4.42913 34.0539C4.03469 34.3086 3.87899 34.4996 4.00355 35.5183C3.44114 34.5738 3.00478 33.5567 2.70605 32.494C2.79346 32.3959 2.90436 32.3227 3.02783 32.2817L4.42913 34.0751" fill="#F9F6EC"/>
<path d="M46.5944 24.8104C46.8812 25.2138 47.148 25.6318 47.3937 26.0626C47.7258 26.6463 48.3175 27.7817 48.3175 27.7817C48.3123 27.8382 48.3123 27.895 48.3175 27.9515C47.3833 26.7205 47.0615 26.2006 46.1377 24.9696C46.2827 24.8882 46.441 24.8342 46.6048 24.8104" fill="#F9F6EC"/>
<path d="M17.7251 5.96347C18.1966 5.9492 18.6678 5.99916 19.1264 6.11204C19.1264 6.11204 18.6593 6.31367 18.3271 6.48345C17.995 6.65324 18.1092 6.71691 17.9431 6.48345C17.8107 6.33048 17.7338 6.13567 17.7251 5.93164" fill="#F9F6EC"/>
<path d="M56.8696 0L56.0703 0L56.0703 52.7507H56.8696L56.8696 0Z" fill="#F9F6EC"/>
</g>
<path d="M66.3367 3.23666L61.9148 3.23666V2.12244L71.973 2.12244V3.23666L67.5407 3.23666V15.3552L66.3367 15.3552V3.23666Z" fill="#F9F6EC"/>
<path d="M73.6541 1.22229L74.7543 1.22229V8.22602C74.9983 7.71929 75.3804 7.29548 75.8546 7.00566C76.3842 6.6508 77.007 6.46943 77.64 6.4857C78.1931 6.46326 78.7438 6.57221 79.2489 6.80404C79.6415 6.99395 79.9807 7.28236 80.235 7.64237C80.4719 7.99832 80.6377 8.39862 80.7228 8.82027C80.8114 9.27797 80.8532 9.74386 80.8474 10.2104V15.3465H79.8094V10.2635C79.8131 9.90743 79.7818 9.55191 79.716 9.20229C79.6607 8.88815 79.5518 8.58641 79.3942 8.31091C79.2361 8.04892 79.0144 7.83321 78.7506 7.68481C78.4279 7.52307 78.0719 7.443 77.7126 7.45135C77.3217 7.45171 76.9344 7.52731 76.5708 7.6742C76.2164 7.81668 75.8973 8.03776 75.6366 8.32152C75.3668 8.6311 75.1588 8.99157 75.0242 9.38269C74.8615 9.88551 74.7843 10.4131 74.7958 10.9426V15.2616H73.6956L73.6541 1.22229Z" fill="#F9F6EC"/>
<path d="M91.277 13.7215C90.8956 14.3405 90.3478 14.8342 89.6992 15.1434C89.0441 15.4325 88.3367 15.5772 87.6232 15.5679C87.0229 15.5794 86.4263 15.4676 85.869 15.2389C85.3587 15.0199 84.8964 14.6988 84.5093 14.2945C84.1285 13.8788 83.8352 13.3876 83.6477 12.8513C83.4344 12.2642 83.3288 11.6418 83.3363 11.0155C83.3295 10.3996 83.4352 9.78782 83.6477 9.21149C83.8494 8.68378 84.149 8.20093 84.53 7.78953C84.9216 7.37241 85.3925 7.04146 85.9137 6.81701C86.4349 6.59257 86.9954 6.47936 87.561 6.4843C88.1501 6.47085 88.7349 6.59042 89.2737 6.83449C89.7453 7.04877 90.1692 7.35931 90.5193 7.74708C90.85 8.1295 91.1071 8.57235 91.277 9.05233C91.4451 9.52529 91.5329 10.0241 91.5365 10.5274V11.2702H84.4366C84.4446 11.5754 84.4899 11.8784 84.5715 12.1722C84.6714 12.5565 84.8442 12.9171 85.0802 13.2333C85.3389 13.6016 85.6715 13.9091 86.0559 14.1353C86.5384 14.4051 87.0843 14.5337 87.6336 14.5067C88.2002 14.5045 88.7584 14.3663 89.2633 14.1035C89.7598 13.8513 90.177 13.4615 90.4674 12.9787L91.277 13.7215ZM90.4362 10.3045C90.4363 9.93803 90.3584 9.57592 90.2079 9.24333C90.0532 8.91417 89.8423 8.6159 89.5851 8.36256C89.3149 8.10104 88.9976 7.89563 88.6509 7.7577C88.2901 7.60021 87.9013 7.52072 87.5091 7.52424C86.9857 7.50632 86.4679 7.63866 86.0143 7.90626C85.649 8.12489 85.3312 8.41736 85.0802 8.76581C84.8688 9.05338 84.7009 9.37174 84.5819 9.71025C84.5079 9.91186 84.4591 10.1222 84.4366 10.3363L90.4362 10.3045Z" fill="#F9F6EC"/>
<path d="M63.3674 37.8911H64.9244L72.8028 49.4791H72.8444V37.8911H74.0484V51.1239H72.4914L64.613 39.5359H64.5715V51.1239H63.3674V37.8911Z" fill="#F9F6EC"/>
<path d="M84.7397 49.4707C84.3582 50.0898 83.8105 50.5834 83.1619 50.8927C82.5078 51.1861 81.8002 51.3343 81.0859 51.3278C80.4849 51.3351 79.8885 51.2196 79.3317 50.9882C78.8211 50.7755 78.361 50.4535 77.9823 50.0438C77.5949 49.6314 77.2977 49.1394 77.1104 48.6006C76.905 48.0116 76.8031 47.3901 76.8094 46.7648C76.8027 46.1523 76.9083 45.544 77.1208 44.9714C77.316 44.4397 77.6123 43.9528 77.9927 43.5388C78.3756 43.1363 78.83 42.8122 79.3317 42.5838C79.8687 42.3457 80.4488 42.2263 81.034 42.2336C81.6197 42.221 82.201 42.3405 82.7364 42.5838C83.2074 42.7991 83.6311 43.1095 83.982 43.4964C84.32 43.8733 84.578 44.3177 84.7397 44.8016C84.9123 45.277 85.0002 45.7802 84.9992 46.2872V47.0725H77.9097C77.9177 47.3778 77.963 47.6808 78.0446 47.9745C78.1482 48.3555 78.3169 48.7147 78.5428 49.0357C78.807 49.396 79.1387 49.699 79.5186 49.927C80.0047 50.1972 80.554 50.3257 81.1067 50.2985C81.6731 50.295 82.2311 50.157 82.7364 49.8952C83.2332 49.6435 83.6505 49.2536 83.9404 48.7704L84.7397 49.4707ZM83.8989 46.0538C83.9014 45.687 83.8234 45.3244 83.6705 44.9926C83.5261 44.6543 83.314 44.3506 83.0477 44.1012C82.7776 43.8397 82.4603 43.6343 82.1136 43.4964C81.751 43.3462 81.363 43.2704 80.9717 43.2735C80.4525 43.2509 79.9377 43.3797 79.4874 43.6449C79.1205 43.8654 78.7996 44.1575 78.5428 44.5045C78.3305 44.7897 78.1657 45.1088 78.055 45.4489C77.9769 45.6492 77.9279 45.8602 77.9097 46.075L83.8989 46.0538Z" fill="#F9F6EC"/>
<path d="M91.5785 43.4978H89.1496V49.122C89.1402 49.2843 89.1629 49.4469 89.2164 49.6001C89.27 49.7533 89.3531 49.8938 89.461 50.0134C89.5741 50.123 89.7079 50.2078 89.8543 50.2626C90.0007 50.3173 90.1565 50.3409 90.3121 50.3317C90.5261 50.3349 90.7394 50.3063 90.9453 50.2468C91.1549 50.1937 91.3597 50.1227 91.5577 50.0346L91.6511 51.0427C91.4164 51.1268 91.1773 51.1977 90.9349 51.2549C90.704 51.3142 90.4671 51.3463 90.2291 51.3504C89.8747 51.362 89.5218 51.3006 89.1911 51.17C88.9314 51.0695 88.6998 50.9055 88.5164 50.6925C88.341 50.4897 88.2101 50.2509 88.1323 49.9921C88.056 49.7087 88.0176 49.416 88.0181 49.122V43.4978H86.2432V42.4366H88.1116V39.9429H89.1496V42.4366H91.5577L91.5785 43.4978Z" fill="#F9F6EC"/>
<path d="M92.3508 42.4891H93.5549L95.6102 49.7263H95.6413L97.9975 42.4891H99.0459L101.547 49.7263H101.589L103.582 42.4891H104.672L102.191 51.1271H101.06L98.5269 44.0597H98.4958L96.1395 51.1271H95.0081L92.3508 42.4891Z" fill="#F9F6EC"/>
<path d="M105.935 46.7997C105.924 46.1781 106.037 45.5609 106.267 44.9851C106.47 44.4446 106.781 43.9531 107.18 43.5419C107.576 43.1288 108.054 42.8068 108.581 42.5975C109.154 42.369 109.763 42.2538 110.377 42.2579C110.988 42.2538 111.594 42.3691 112.163 42.5975C112.688 42.8115 113.165 43.1329 113.564 43.5419C113.965 43.9533 114.28 44.4445 114.488 44.9851C114.93 46.1562 114.93 47.4538 114.488 48.6249C114.28 49.1656 113.965 49.6568 113.564 50.0681C113.165 50.4772 112.688 50.7986 112.163 51.0126C111.594 51.241 110.988 51.3562 110.377 51.3522C109.763 51.3563 109.154 51.241 108.581 51.0126C108.054 50.8033 107.576 50.4813 107.18 50.0681C106.781 49.6569 106.47 49.1655 106.267 48.6249C106.037 48.0457 105.924 47.4248 105.935 46.7997V46.7997ZM107.035 46.7997C107.03 47.2698 107.108 47.7369 107.263 48.1792C107.406 48.5973 107.632 48.9804 107.928 49.3041C108.221 49.6232 108.574 49.8793 108.966 50.0575C109.858 50.4257 110.855 50.4257 111.747 50.0575C112.139 49.8793 112.492 49.6232 112.785 49.3041C113.081 48.9804 113.307 48.5973 113.45 48.1792C113.754 47.2896 113.754 46.3205 113.45 45.4308C113.307 45.0127 113.081 44.6296 112.785 44.306C112.492 43.9869 112.139 43.7308 111.747 43.5525C110.855 43.1843 109.858 43.1843 108.966 43.5525C108.574 43.7308 108.221 43.9869 107.928 44.306C107.632 44.6296 107.406 45.0127 107.263 45.4308C107.109 45.8697 107.031 46.3332 107.035 46.7997" fill="#F9F6EC"/>
<path d="M117.268 44.9176C117.268 44.7478 117.268 44.5568 117.268 44.3233C117.268 44.0899 117.268 43.8564 117.268 43.623C117.268 43.3895 117.268 43.1667 117.268 42.965C117.268 42.7634 117.268 42.5936 117.268 42.4875H118.369V43.4213C118.349 43.6118 118.349 43.8039 118.369 43.9944C118.625 43.5071 118.978 43.0804 119.407 42.7422C119.879 42.4095 120.442 42.2386 121.015 42.2541C121.122 42.2436 121.23 42.2436 121.337 42.2541L121.649 42.3177L121.524 43.3789C121.391 43.3294 121.25 43.3042 121.109 43.3046C120.686 43.2958 120.266 43.3753 119.874 43.5381C119.541 43.6825 119.246 43.9041 119.012 44.1854C118.78 44.4669 118.61 44.7962 118.514 45.151C118.399 45.5325 118.343 45.9299 118.348 46.3289V51.0405H117.248L117.268 44.9176Z" fill="#F9F6EC"/>
<path d="M123.356 36.993H124.456V46.4162L128.629 42.5111H130.238L125.889 46.4481L130.747 51.1278H129.086L124.456 46.5648V51.1278H123.356V36.993Z" fill="#F9F6EC"/>
<path d="M106.739 14.4536C105.905 14.8958 105.019 15.224 104.102 15.4299C103.18 15.6254 102.241 15.7249 101.3 15.727C100.348 15.7388 99.4014 15.5734 98.5074 15.2389C97.6844 14.9366 96.9316 14.4632 96.2964 13.8488C95.6637 13.2315 95.1681 12.4823 94.8432 11.6521C94.1372 9.79923 94.1372 7.74289 94.8432 5.88998C95.1681 5.05979 95.6637 4.31067 96.2964 3.69337C96.9343 3.08246 97.6863 2.60963 98.5074 2.30324C99.4027 1.97383 100.348 1.80857 101.3 1.8151C102.267 1.80528 103.232 1.93387 104.164 2.19712C105.02 2.44884 105.806 2.90328 106.458 3.52358L104.445 5.76265C104.073 5.36167 103.624 5.04371 103.126 4.82882C102.544 4.59875 101.923 4.4905 101.3 4.51048C100.734 4.50318 100.173 4.6114 99.6492 4.82882C99.1697 5.03018 98.7379 5.33412 98.3828 5.72021C98.0187 6.10461 97.7391 6.56408 97.5628 7.06788C97.1895 8.17491 97.1895 9.37783 97.5628 10.4849C97.7391 10.9887 98.0187 11.4481 98.3828 11.8325C98.7385 12.2153 99.1703 12.5156 99.6492 12.7133C100.173 12.9307 100.734 13.039 101.3 13.0317C101.843 13.0464 102.386 12.9748 102.908 12.8194C103.268 12.7097 103.615 12.564 103.946 12.3844V10.262H101.632V7.56663L106.697 7.56663L106.739 14.4536Z" fill="#F9F6EC"/>
<path d="M111.664 1.22229L108.924 1.22229V15.3571H111.664V1.22229Z" fill="#F9F6EC"/>
<path d="M113.317 10.8028C113.306 10.1278 113.437 9.45824 113.701 8.83963C113.941 8.26936 114.295 7.75624 114.739 7.33276C115.195 6.91194 115.728 6.58738 116.307 6.37771C116.926 6.15185 117.579 6.03698 118.237 6.03815C118.895 6.03504 119.549 6.14996 120.168 6.37771C120.75 6.57765 121.284 6.90005 121.736 7.3241C122.189 7.74814 122.549 8.26443 122.794 8.83963C123.194 9.74328 123.31 10.752 123.124 11.7257C122.938 12.6993 122.46 13.5896 121.756 14.2728C121.297 14.6971 120.761 15.0251 120.178 15.2385C119.558 15.4626 118.905 15.574 118.248 15.5674C117.59 15.5722 116.937 15.4609 116.317 15.2385C115.738 15.0249 115.205 14.6968 114.75 14.2728C114.303 13.8514 113.949 13.3378 113.712 12.766C113.447 12.1474 113.316 11.4778 113.327 10.8028H113.317ZM116.068 10.8028C116.039 11.413 116.243 12.0107 116.639 12.4688C117.083 12.8782 117.66 13.1048 118.258 13.1048C118.856 13.1048 119.433 12.8782 119.877 12.4688C120.253 11.9987 120.459 11.4101 120.459 10.8028C120.459 10.1955 120.253 9.60687 119.877 9.13676C119.43 8.73387 118.854 8.5116 118.258 8.5116C117.662 8.5116 117.086 8.73387 116.639 9.13676C116.245 9.59604 116.041 10.1929 116.068 10.8028" fill="#F9F6EC"/>
<path d="M125.047 1.22229L127.798 1.22229V7.23912C128.104 6.81531 128.527 6.49402 129.012 6.31591C129.529 6.12985 130.073 6.03652 130.621 6.04001C131.209 6.03128 131.79 6.16971 132.313 6.44324C132.805 6.70337 133.24 7.06463 133.59 7.50441C133.941 7.96646 134.211 8.487 134.389 9.0431C134.58 9.63181 134.678 10.248 134.679 10.8683C134.687 11.5119 134.581 12.1516 134.368 12.7572C134.172 13.3093 133.869 13.8148 133.475 14.2428C133.09 14.6663 132.619 14.9993 132.095 15.2191C131.527 15.4496 130.921 15.5649 130.31 15.5587C130.004 15.5618 129.7 15.5189 129.406 15.4313C129.135 15.3487 128.874 15.2347 128.628 15.0918C128.405 14.9632 128.196 14.8102 128.005 14.6355C127.846 14.4855 127.703 14.3183 127.58 14.1367V14.1367V15.3358H125.047V1.22229ZM127.58 10.7728C127.55 11.383 127.755 11.9807 128.15 12.4389C128.595 12.8482 129.172 13.0748 129.77 13.0748C130.368 13.0748 130.945 12.8482 131.389 12.4389C131.758 11.9654 131.959 11.3781 131.959 10.7728C131.959 10.1676 131.758 9.58022 131.389 9.10679C130.942 8.7039 130.366 8.48162 129.77 8.48162C129.174 8.48162 128.598 8.7039 128.15 9.10679C127.757 9.56606 127.553 10.163 127.58 10.7728Z" fill="#F9F6EC"/>
<path d="M141.894 14.2087C141.613 14.6876 141.186 15.06 140.68 15.2699C139.791 15.6354 138.809 15.6877 137.888 15.4184C137.511 15.3064 137.159 15.1228 136.85 14.8772C136.558 14.6432 136.32 14.3461 136.154 14.0071C135.973 13.6276 135.884 13.2089 135.895 12.7867C135.879 12.3265 135.979 11.8698 136.185 11.4603C136.368 11.1018 136.631 10.7927 136.953 10.5583C137.289 10.3173 137.66 10.1344 138.054 10.0171C138.473 9.8795 138.904 9.78005 139.341 9.71995C139.785 9.65823 140.232 9.6228 140.68 9.61384H141.915C141.923 9.38835 141.881 9.16394 141.791 8.9579C141.701 8.75185 141.566 8.56966 141.396 8.42534C141.049 8.13222 140.61 7.97763 140.161 7.99025C139.733 7.98423 139.309 8.08243 138.926 8.27676C138.531 8.468 138.178 8.73869 137.888 9.07263L136.424 7.53394C136.947 7.06029 137.557 6.69937 138.22 6.47277C138.887 6.2343 139.589 6.11233 140.296 6.11198C140.969 6.09281 141.641 6.19703 142.278 6.41971C142.765 6.60109 143.195 6.91258 143.524 7.32171C143.847 7.7562 144.067 8.26098 144.167 8.79673C144.3 9.45649 144.363 10.1289 144.354 10.8023V15.4184H141.832L141.894 14.2087ZM141.22 11.3648H140.441C140.134 11.3745 139.83 11.4281 139.538 11.5239C139.27 11.5984 139.022 11.7325 138.811 11.9166C138.711 12.0059 138.632 12.1172 138.58 12.2422C138.528 12.3671 138.504 12.5025 138.51 12.6382C138.501 12.7913 138.536 12.9439 138.609 13.0776C138.683 13.2112 138.793 13.3203 138.926 13.3916C139.195 13.5485 139.498 13.6325 139.808 13.6357C140.071 13.6348 140.334 13.5955 140.586 13.5189C140.823 13.4498 141.047 13.3423 141.251 13.2006C141.445 13.0678 141.605 12.8896 141.718 12.6806C141.838 12.4488 141.899 12.1896 141.894 11.9272V11.3329L141.22 11.3648Z" fill="#F9F6EC"/>
<path d="M148.911 1.22229L146.171 1.22229V15.3571H148.911V1.22229Z" fill="#F9F6EC"/>
<path d="M63.4285 19.4836H72.4487V22.2745H66.3971V25.0654H71.9919V27.8563H66.3971V33.2152H63.4285V19.4836Z" fill="#F9F6EC"/>
<path d="M73.9235 28.4917C73.9167 27.7921 74.051 27.0985 74.318 26.4543C74.5612 25.8701 74.9138 25.3402 75.356 24.8944C75.8321 24.4534 76.3897 24.1142 76.996 23.8969C77.6382 23.6597 78.3165 23.5411 78.9993 23.5467C79.682 23.5429 80.36 23.6614 81.0026 23.8969C81.6047 24.1168 82.1584 24.4557 82.6323 24.8944C83.0744 25.3402 83.4271 25.8701 83.6703 26.4543C83.942 27.097 84.0765 27.7916 84.0647 28.4917C84.0787 29.192 83.9442 29.8871 83.6703 30.5292C83.4299 31.1181 83.077 31.652 82.6323 32.0997C82.1558 32.5347 81.6027 32.8732 81.0026 33.0972C80.36 33.3327 79.682 33.4512 78.9993 33.4474C78.3165 33.453 77.6382 33.3344 76.996 33.0972C76.3916 32.8756 75.8348 32.5369 75.356 32.0997C74.9112 31.652 74.5583 31.1181 74.318 30.5292C74.049 29.8856 73.9146 29.1916 73.9235 28.4917V28.4917ZM76.7676 28.4917C76.7382 29.1268 76.9545 29.7481 77.3697 30.2214C77.8294 30.6457 78.4267 30.8806 79.046 30.8806C79.6654 30.8806 80.2627 30.6457 80.7224 30.2214C81.1376 29.7481 81.3538 29.1268 81.3244 28.4917C81.3545 27.8598 81.1379 27.2415 80.7224 26.7726C80.2627 26.3483 79.6654 26.1135 79.046 26.1135C78.4267 26.1135 77.8294 26.3483 77.3697 26.7726C76.9541 27.2415 76.7376 27.8598 76.7676 28.4917" fill="#F9F6EC"/>
<path d="M85.5499 28.4915C85.5414 27.7906 85.6795 27.096 85.9547 26.454C86.2059 25.861 86.5774 25.3293 87.0446 24.8941C87.517 24.4534 88.0712 24.1142 88.6743 23.8966C89.9708 23.4298 91.3844 23.4298 92.6809 23.8966C93.284 24.1142 93.8382 24.4534 94.3106 24.8941C94.7778 25.3293 95.1493 25.861 95.4005 26.454C95.6758 27.096 95.8138 27.7906 95.8053 28.4915C95.816 29.1926 95.6779 29.8877 95.4005 30.5289C95.152 31.1265 94.7803 31.6623 94.3106 32.0995C93.8356 32.5366 93.2821 32.8753 92.6809 33.097C91.3844 33.5638 89.9708 33.5638 88.6743 33.097C88.0731 32.8753 87.5196 32.5366 87.0446 32.0995C86.575 31.6623 86.2032 31.1265 85.9547 30.5289C85.6773 29.8877 85.5392 29.1926 85.5499 28.4915V28.4915ZM88.4044 28.4915C88.3755 29.1246 88.5875 29.7445 88.9961 30.2212C89.4585 30.6441 90.0572 30.8778 90.6776 30.8778C91.298 30.8778 91.8967 30.6441 92.3592 30.2212C92.7677 29.7445 92.9797 29.1246 92.9508 28.4915C92.9792 27.8617 92.767 27.2453 92.3592 26.7724C91.8967 26.3495 91.298 26.1158 90.6776 26.1158C90.0572 26.1158 89.4585 26.3495 88.9961 26.7724C88.5882 27.2453 88.376 27.8617 88.4044 28.4915Z" fill="#F9F6EC"/>
<path d="M107.202 33.2132H104.587V31.9717C104.296 32.376 103.925 32.7124 103.497 32.9586C103.235 33.1025 102.961 33.2198 102.677 33.3088C102.38 33.3976 102.073 33.444 101.763 33.4467C101.127 33.4531 100.495 33.3305 99.9054 33.0859C99.3636 32.857 98.8754 32.5134 98.4729 32.0778C98.0655 31.6307 97.7512 31.1036 97.5491 30.5285C97.3273 29.9028 97.2183 29.2413 97.2273 28.5759C97.2233 27.9309 97.3214 27.2894 97.518 26.6764C97.7035 26.099 97.9882 25.56 98.3587 25.0847C98.7088 24.6398 99.143 24.2716 99.6355 24.0023C100.182 23.719 100.788 23.5769 101.4 23.5884C101.966 23.5841 102.528 23.6811 103.061 23.875C103.565 24.0548 104.003 24.388 104.317 24.83V24.83V18.5797H107.161L107.202 33.2132ZM104.587 28.491C104.617 27.8591 104.4 27.2408 103.985 26.7719C103.525 26.3476 102.928 26.1128 102.308 26.1128C101.689 26.1128 101.092 26.3476 100.632 26.7719C100.216 27.2408 99.9999 27.8591 100.03 28.491C100.001 29.1261 100.217 29.7474 100.632 30.2207C101.092 30.645 101.689 30.8799 102.308 30.8799C102.928 30.8799 103.525 30.645 103.985 30.2207C104.4 29.7474 104.616 29.1261 104.587 28.491" fill="#F9F6EC"/>
<path d="M110.299 19.474H115.302C115.892 19.4742 116.482 19.5167 117.067 19.6014C117.618 19.6758 118.152 19.8481 118.644 20.1107C119.108 20.3574 119.502 20.7231 119.786 21.1719C120.099 21.7174 120.251 22.3441 120.222 22.9759C120.249 23.6771 120.023 24.364 119.589 24.9072C119.138 25.416 118.555 25.7839 117.907 25.9684V25.9684C118.327 26.0247 118.734 26.1539 119.111 26.3504C119.461 26.5295 119.777 26.7701 120.046 27.0614C120.31 27.3713 120.511 27.7321 120.637 28.1225C120.781 28.5234 120.851 28.9479 120.845 29.3747C120.87 30.0123 120.712 30.6435 120.388 31.1893C120.089 31.6648 119.688 32.0641 119.215 32.3566C118.715 32.6626 118.168 32.8781 117.596 32.9933C117.006 33.1279 116.404 33.1955 115.8 33.1949H110.299V19.474ZM113.257 24.9709H115.406C115.63 24.9694 115.853 24.9409 116.07 24.886C116.282 24.8373 116.485 24.755 116.672 24.6419C116.849 24.5243 116.995 24.364 117.098 24.175C117.213 23.9609 117.271 23.719 117.264 23.4746C117.273 23.2238 117.208 22.9759 117.077 22.7636C116.965 22.5798 116.808 22.4296 116.62 22.3285C116.416 22.2175 116.195 22.1422 115.966 22.1057C115.737 22.0639 115.504 22.0426 115.271 22.042H113.257V24.9709ZM113.257 30.6481H115.914C116.148 30.6492 116.381 30.6243 116.61 30.5738C116.837 30.5263 117.052 30.4325 117.243 30.2979C117.431 30.1671 117.59 29.9972 117.71 29.7992C117.832 29.5679 117.893 29.3083 117.887 29.0458C117.9 28.7634 117.815 28.4853 117.648 28.2605C117.494 28.0569 117.29 27.8992 117.056 27.8042C116.807 27.6965 116.545 27.6216 116.278 27.5813C116.019 27.5492 115.759 27.5315 115.499 27.5283H113.257V30.6481Z" fill="#F9F6EC"/>
<path d="M128.17 32.0266C127.865 32.5058 127.423 32.8766 126.903 33.0878C126.375 33.3036 125.812 33.4153 125.243 33.4167C124.82 33.4182 124.4 33.3538 123.997 33.2257C123.62 33.1119 123.267 32.9245 122.959 32.6739C122.652 32.4307 122.403 32.1185 122.232 31.7613C122.051 31.3667 121.962 30.9343 121.973 30.4985C121.956 30.0245 122.056 29.5538 122.264 29.1296C122.451 28.7562 122.726 28.4356 123.063 28.1958C123.411 27.9443 123.797 27.7509 124.205 27.6227C124.643 27.4877 125.091 27.3849 125.544 27.315C126.005 27.2533 126.469 27.2178 126.935 27.2089C127.391 27.2089 127.817 27.2089 128.211 27.2089C128.223 26.9747 128.18 26.7411 128.086 26.5272C127.992 26.3132 127.85 26.125 127.672 25.9779C127.314 25.6734 126.86 25.5114 126.395 25.5216C125.949 25.5141 125.507 25.616 125.108 25.8187C124.713 26.0246 124.361 26.3055 124.07 26.6465L122.544 25.0547C123.078 24.5469 123.711 24.16 124.402 23.9192C125.112 23.6648 125.86 23.5356 126.613 23.5372C127.318 23.5132 128.022 23.6211 128.689 23.8556C129.194 24.0454 129.639 24.3718 129.976 24.8C130.315 25.2484 130.546 25.7718 130.651 26.3281C130.79 27.0264 130.856 27.7378 130.848 28.4504V33.2469H128.222L128.17 32.0266ZM127.464 29.0765H126.665C126.348 29.0951 126.034 29.1521 125.731 29.2463C125.453 29.3256 125.195 29.4629 124.973 29.6496C124.869 29.7433 124.787 29.8596 124.733 29.99C124.679 30.1204 124.655 30.2616 124.661 30.403C124.653 30.5614 124.689 30.7191 124.767 30.8566C124.844 30.9942 124.959 31.1058 125.097 31.1776C125.374 31.3441 125.69 31.432 126.011 31.4323C126.282 31.4368 126.551 31.3974 126.81 31.3156C127.059 31.2497 127.295 31.1382 127.506 30.9866C127.709 30.8496 127.876 30.6638 127.993 30.4454C128.114 30.206 128.174 29.9399 128.17 29.6708V29.0447L127.464 29.0765Z" fill="#F9F6EC"/>
<path d="M132.748 23.7787H135.478V25.0628C135.577 24.8627 135.707 24.6801 135.862 24.5216C136.027 24.326 136.223 24.1608 136.443 24.0334C136.687 23.8832 136.948 23.7655 137.222 23.6832C137.531 23.5868 137.853 23.5403 138.177 23.5453C138.775 23.523 139.371 23.6391 139.92 23.8849C140.35 24.0886 140.711 24.4171 140.958 24.8293C141.217 25.2611 141.39 25.7407 141.467 26.2407C141.557 26.8269 141.602 27.4194 141.602 28.0128V33.2125H138.747V28.5965C138.747 28.3206 138.747 28.034 138.747 27.7475C138.728 27.4712 138.668 27.1995 138.571 26.941C138.482 26.7028 138.331 26.4938 138.135 26.3362C137.886 26.169 137.592 26.0872 137.294 26.1027C136.983 26.0898 136.675 26.1631 136.402 26.3149C136.18 26.4389 135.999 26.6272 135.883 26.8561C135.752 27.0913 135.671 27.3514 135.644 27.6202C135.602 27.9153 135.581 28.2133 135.582 28.5116V33.2125H132.748V23.7787Z" fill="#F9F6EC"/>
<path d="M143.774 18.5488H146.618V27.5157L149.773 23.7804H153.261L149.597 28.0357L153.354 33.2142H149.773L146.659 28.4389H146.618V33.2142H143.774V18.5488Z" fill="#F9F6EC"/>
<path d="M154.287 20.9233C154.29 20.4767 154.464 20.0492 154.773 19.7333C155.082 19.4175 155.501 19.2389 155.937 19.2361C156.156 19.2335 156.372 19.2763 156.574 19.3621C156.776 19.4478 156.958 19.5747 157.11 19.7348C157.265 19.8889 157.388 20.0739 157.47 20.2784C157.552 20.4828 157.592 20.7024 157.588 20.9233C157.591 21.1457 157.55 21.3664 157.468 21.5724C157.386 21.7784 157.264 21.9655 157.111 22.1227C156.957 22.28 156.774 22.4042 156.572 22.488C156.371 22.5717 156.155 22.6134 155.937 22.6106C155.721 22.615 155.507 22.5739 155.307 22.49C155.107 22.406 154.926 22.2809 154.775 22.1225C154.618 21.9669 154.494 21.7804 154.41 21.5742C154.326 21.3681 154.284 21.1466 154.287 20.9233V20.9233ZM154.515 23.8946H157.359V33.3284H154.546L154.515 23.8946Z" fill="#F9F6EC"/>
<path d="M159.467 23.7789H162.197V25.063C162.297 24.8659 162.423 24.6838 162.571 24.5218C162.742 24.3284 162.942 24.1637 163.163 24.0336C163.406 23.8834 163.668 23.7657 163.941 23.6834C164.247 23.5881 164.566 23.5416 164.886 23.5455C165.488 23.5224 166.088 23.6384 166.64 23.8851C167.067 24.0919 167.427 24.4196 167.678 24.8295C167.936 25.2613 168.109 25.7409 168.187 26.2409C168.276 26.8271 168.322 27.4196 168.322 28.013V33.2127H165.467V28.5967C165.467 28.3207 165.467 28.0342 165.467 27.7477C165.448 27.4714 165.388 27.1997 165.291 26.9412C165.201 26.703 165.051 26.494 164.855 26.3364C164.606 26.1692 164.311 26.0874 164.014 26.1029C163.703 26.09 163.395 26.1633 163.121 26.3151C162.9 26.4391 162.719 26.6274 162.602 26.8563C162.472 27.0915 162.391 27.3516 162.363 27.6204C162.321 27.9155 162.3 28.2135 162.301 28.5118V33.2127H159.457L159.467 23.7789Z" fill="#F9F6EC"/>
<path d="M179.985 32.5222C180.038 33.255 179.948 33.9911 179.722 34.6884C179.496 35.3858 179.137 36.0308 178.667 36.5865C178.127 37.0847 177.493 37.465 176.804 37.7041C176.115 37.9431 175.386 38.0359 174.661 37.9766C173.843 37.9781 173.028 37.8819 172.232 37.6901C171.427 37.5065 170.673 37.1442 170.021 36.6289L171.598 34.2201C172.025 34.5794 172.496 34.8792 173 35.1115C173.503 35.3371 174.048 35.4493 174.598 35.4404C174.946 35.4708 175.296 35.4292 175.628 35.318C175.96 35.2068 176.266 35.0282 176.529 34.7931C176.94 34.3461 177.16 33.7507 177.141 33.1377V32.2251C176.837 32.6584 176.415 32.9906 175.927 33.1801C175.488 33.3607 175.02 33.4578 174.546 33.4667C173.91 33.4731 173.278 33.3505 172.688 33.1059C172.147 32.877 171.658 32.5334 171.256 32.0977C170.848 31.6506 170.534 31.1235 170.332 30.5484C170.11 29.9228 170.001 29.2613 170.01 28.5959C170.008 27.9752 170.106 27.3585 170.301 26.7707C170.484 26.1867 170.773 25.6432 171.152 25.1683C171.519 24.7297 171.967 24.3691 172.47 24.1071C173.017 23.8238 173.622 23.6817 174.235 23.6933C174.61 23.6878 174.983 23.7342 175.346 23.8312C175.66 23.9091 175.963 24.0267 176.249 24.1814C176.494 24.308 176.721 24.4687 176.923 24.6589C177.098 24.8067 177.251 24.9781 177.38 25.1683V25.1683V23.9267H179.996L179.985 32.5222ZM172.813 28.5428C172.813 28.8456 172.873 29.1451 172.989 29.4236C173.103 29.699 173.265 29.9508 173.467 30.1664C173.678 30.3786 173.924 30.5511 174.193 30.6758C174.477 30.8062 174.785 30.8714 175.096 30.8668C175.404 30.8679 175.708 30.8028 175.989 30.6758C176.259 30.5511 176.505 30.3786 176.716 30.1664C176.921 29.9512 177.087 29.6995 177.204 29.4236C177.374 29.0038 177.419 28.5415 177.332 28.0955C177.246 27.6496 177.031 27.2401 176.716 26.9192C176.505 26.707 176.259 26.5346 175.989 26.4099C175.708 26.2829 175.404 26.2178 175.096 26.2189C174.785 26.2143 174.477 26.2795 174.193 26.4099C173.924 26.5346 173.678 26.707 173.467 26.9192C173.26 27.1312 173.098 27.3839 172.989 27.6621C172.873 27.9405 172.813 28.2401 172.813 28.5428" fill="#F9F6EC"/>
<path d="M131.326 42.6073C131.322 42.3189 131.379 42.0329 131.492 41.769C131.703 41.2504 132.106 40.8383 132.613 40.6229C132.871 40.5067 133.151 40.4488 133.433 40.4531C133.715 40.4497 133.995 40.5076 134.253 40.6229C134.5 40.7334 134.724 40.8879 134.918 41.0792C135.108 41.2801 135.263 41.5136 135.374 41.769C135.483 42.0345 135.54 42.3194 135.54 42.6073C135.539 42.8951 135.482 43.1798 135.374 43.4456C135.152 43.9562 134.753 44.3645 134.253 44.5917C133.993 44.7019 133.715 44.7595 133.433 44.7615C133.157 44.7617 132.883 44.7055 132.628 44.5962C132.373 44.4868 132.142 44.3266 131.949 44.1248C131.755 43.9311 131.6 43.7003 131.492 43.4456C131.379 43.1813 131.323 42.8956 131.326 42.6073V42.6073ZM131.627 42.6073C131.634 43.0955 131.823 43.5626 132.157 43.9125C132.323 44.0766 132.516 44.2095 132.727 44.3052C132.951 44.3996 133.191 44.4465 133.433 44.4431C133.672 44.4465 133.909 44.3996 134.129 44.3052C134.346 44.2155 134.544 44.0819 134.71 43.9123C134.876 43.7427 135.006 43.5407 135.094 43.3183C135.186 43.0933 135.232 42.8512 135.229 42.6073C135.232 42.3599 135.186 42.1144 135.094 41.8857C135.001 41.6696 134.871 41.4721 134.71 41.302C134.368 40.9614 133.911 40.7678 133.433 40.7608C132.954 40.7608 132.495 40.9554 132.156 41.3017C131.817 41.6479 131.627 42.1176 131.627 42.6073ZM132.977 43.8382H132.665V41.3551H133.599C133.811 41.3312 134.023 41.392 134.191 41.5249C134.314 41.6682 134.377 41.8547 134.367 42.0449C134.368 42.1463 134.351 42.247 134.316 42.342C134.287 42.419 134.24 42.4881 134.181 42.5436C134.127 42.6013 134.064 42.6481 133.994 42.6816C133.917 42.7124 133.837 42.7338 133.755 42.7452L134.482 43.8064H134.129L133.413 42.7452H132.977V43.8382ZM132.977 42.4693H133.61C133.685 42.4853 133.763 42.4853 133.838 42.4693C133.903 42.4462 133.958 42.4013 133.994 42.342C134.04 42.2738 134.062 42.1914 134.056 42.1085C134.074 42.0425 134.074 41.9729 134.056 41.9069C134.026 41.8544 133.983 41.8106 133.932 41.7796C133.877 41.7474 133.817 41.7258 133.755 41.7159H133.558H133.018L132.977 42.4693Z" fill="#F9F6EC"/>
</svg>
